<?xml version="1.0" encoding="utf-8"?>
<!-- Generator: Adobe Illustrator 21.1.0, SVG Export Plug-In . SVG Version: 6.00 Build 0)  -->
<svg version="1.1" xmlns="http://www.w3.org/2000/svg" xmlns:xlink="http://www.w3.org/1999/xlink" x="0px" y="0px"
	 viewBox="0 0 778 778" style="enable-background:new 0 0 778 778;" xml:space="preserve">
<g id="pipes-root">
<style type="text/css">
	.st0{display:none;opacity:0.5;}
	.st1{display:none;}
	.st2{display:inline;fill:none;stroke:#FF2AF5;stroke-width:3;stroke-miterlimit:10;}
	.st3{display:inline;fill:#FF00FF;}
	.st4{font-family:'AktivGrotesk-XBold';}
	.st5{font-size:30px;}
	.st6{fill:none;stroke:#000000;stroke-width:12;stroke-miterlimit:10;}
	.st7{fill:#FF8B00;}
	.st8{fill:#FFFFFF;}
	.st9{font-size:19px;}
	.st10{fill:#15ACFF;}
	.st11{fill:#8962F4;}
	.st12{fill:#4B8E20;}
	.st13{fill:#7BE834;}
</style>
<g id="Background" class="st0">

		<image style="display:inline;overflow:visible;" width="2142" height="2142" xlink:href="IMG_7488.JPG"  transform="matrix(0.2988 0 0 0.2988 69 69)">
	</image>
</g>
<g id="Grid" class="st1">
	<line class="st2" x1="69" y1="629.5" x2="709" y2="589.5"/>
	<line class="st2" x1="69" y1="562.5" x2="709" y2="532.5"/>
	<polyline class="st2" points="69,520.5 386.4,505.6 399,475.3 462,472.3 478.5,501.3 709,490.5 	"/>
	<polyline class="st2" points="69,426.5 322.9,418.6 331.9,437.3 455.4,433.4 464.9,414.1 709,406.5 	"/>
	<line class="st2" x1="69" y1="388.5" x2="709" y2="381.5"/>
	<line class="st2" x1="69" y1="354.5" x2="709" y2="354.5"/>
	<polyline class="st2" points="69,306.5 248.5,295.3 262.5,273.4 343,268.4 374,287.4 709,266.5 	"/>
	<line class="st2" x1="69" y1="200.5" x2="709" y2="200.5"/>
	<line class="st2" x1="69" y1="144.5" x2="709" y2="154.5"/>
	<line class="st2" x1="160.5" y1="708.5" x2="150.5" y2="68.5"/>
	<line class="st2" x1="496.5" y1="709" x2="503.5" y2="69"/>
	<line class="st2" x1="555.5" y1="709" x2="569.5" y2="69"/>
	<polyline class="st2" points="587.5,709 587.5,322.7 607.5,304.5 607.5,249.3 596.5,230.7 596.5,69 	"/>
	<line class="st2" x1="631.5" y1="709" x2="639.5" y2="69"/>
	<polyline class="st2" points="203.5,709 207.1,592.7 197.6,579.4 213.5,69 	"/>
	<line class="st2" x1="301.5" y1="709" x2="275.5" y2="69"/>
	<line class="st2" x1="372.5" y1="709" x2="350.5" y2="69"/>
	<line class="st2" x1="416.5" y1="709" x2="456.5" y2="69"/>
	<text transform="matrix(1 0 0 1 149 746)" class="st3 st4 st5">A</text>
	<text transform="matrix(1 0 0 1 38 639)" class="st3 st4 st5">1</text>
	<text transform="matrix(1 0 0 1 38 573)" class="st3 st4 st5">2</text>
	<text transform="matrix(1 0 0 1 38 529)" class="st3 st4 st5">3</text>
	<text transform="matrix(1 0 0 1 38 437)" class="st3 st4 st5">4</text>
	<text transform="matrix(1 0 0 1 38 399)" class="st3 st4 st5">5</text>
	<text transform="matrix(1 0 0 1 38 364)" class="st3 st4 st5">6</text>
	<text transform="matrix(1 0 0 1 38 315)" class="st3 st4 st5">7</text>
	<text transform="matrix(1 0 0 1 38 211)" class="st3 st4 st5">8</text>
	<text transform="matrix(1 0 0 1 37.2402 155)" class="st3 st4 st5">9</text>
	<text transform="matrix(1 0 0 1 725 599)" class="st3 st4 st5">1</text>
	<text transform="matrix(1 0 0 1 725 543)" class="st3 st4 st5">2</text>
	<text transform="matrix(1 0 0 1 725 501)" class="st3 st4 st5">3</text>
	<text transform="matrix(1 0 0 1 725 424)" class="st3 st4 st5">4</text>
	<text transform="matrix(1 0 0 1 725 394)" class="st3 st4 st5">5</text>
	<text transform="matrix(1 0 0 1 725 364)" class="st3 st4 st5">6</text>
	<text transform="matrix(1 0 0 1 725 275)" class="st3 st4 st5">7</text>
	<text transform="matrix(1 0 0 1 725 211)" class="st3 st4 st5">8</text>
	<text transform="matrix(1 0 0 1 725 165)" class="st3 st4 st5">9</text>
	<text transform="matrix(1 0 0 1 192 746)" class="st3 st4 st5">B</text>
	<text transform="matrix(1 0 0 1 291 746)" class="st3 st4 st5">C</text>
	<text transform="matrix(1 0 0 1 360 746)" class="st3 st4 st5">D</text>
	<text transform="matrix(1 0 0 1 407 746)" class="st3 st4 st5">E</text>
	<text transform="matrix(1 0 0 1 488 746)" class="st3 st4 st5">F</text>
	<text transform="matrix(1 0 0 1 544 746)" class="st3 st4 st5">G</text>
	<text transform="matrix(1 0 0 1 579 746)" class="st3 st4 st5">H</text>
	<text transform="matrix(1 0 0 1 627 746)" class="st3 st4 st5">I</text>
	<text transform="matrix(1 0 0 1 140 53)" class="st3 st4 st5">A</text>
	<text transform="matrix(1 0 0 1 205 53)" class="st3 st4 st5">B</text>
	<text transform="matrix(1 0 0 1 266 53)" class="st3 st4 st5">C</text>
	<text transform="matrix(1 0 0 1 343 53)" class="st3 st4 st5">D</text>
	<text transform="matrix(1 0 0 1 450 53)" class="st3 st4 st5">E</text>
	<text transform="matrix(1 0 0 1 497 53)" class="st3 st4 st5">F</text>
	<text transform="matrix(1 0 0 1 555 53)" class="st3 st4 st5">G</text>
	<text transform="matrix(1 0 0 1 585 53)" class="st3 st4 st5">H</text>
	<text transform="matrix(1 0 0 1 636 53)" class="st3 st4 st5">I</text>
</g>
<g id="Edges">
	<line id="i-a1_x5F_j-b1" class="st6" x1="157" y1="625" x2="211" y2="615"/>
	<line id="j-b1_x5F_j-c1" class="st6" x1="211" y1="615" x2="303" y2="614"/>
	<line id="j-c1_x5F_j-g1" class="st6" x1="303" y1="615" x2="559" y2="601"/>
	<path id="j-g1_x5F_v-h2" class="st6" d="M567,602c0,0,23,5,21-57"/>
	<line id="v-h2_x5F_v-h6" class="st6" x1="589" y1="534" x2="587" y2="360"/>
	<path id="v-h6_x5F_j-h7" class="st6" d="M585,353c0,0-2-61,23-80"/>
	<path id="j-h7_x5F_o-i9" class="st6" d="M616,265c0,0,22-11,23-30s1-77,1-77"/>
	<path id="j-b5_x5F_j-h7" class="st6" d="M602,266l-22-26c0,0-10-12-40-13s-272,2-272,2s-29-4-29,30s2,110,2,110s-5,21-32,21"/>
	<line id="j-b1_x5F_v-b2" class="st6" x1="208" y1="611" x2="199" y2="558"/>
	<line id="v-b2_x5F_j-b5" class="st6" x1="198" y1="552" x2="201" y2="394"/>
	<line id="j-b5_x5F_v-b6" class="st6" x1="202" y1="386" x2="201" y2="355"/>
	<line id="v-b6_x5F_j-b7" class="st6" x1="202" y1="350" x2="203" y2="300"/>
	<line id="j-b7_x5F_o-b9" class="st6" x1="203" y1="293" x2="209" y2="153"/>
	<line id="j-c1_x5F_v-c2" class="st6" x1="300" y1="611" x2="296" y2="554"/>
	<line id="v-c2_x5F_j-c3" class="st6" x1="295" y1="550" x2="294" y2="513"/>
	<line id="j-c3_x5F_j-c4" class="st6" x1="293" y1="505" x2="293" y2="420"/>
	<line id="j-c4_x5F_v-c6" class="st6" x1="293" y1="416" x2="289" y2="356"/>
	<line id="v-c6_x5F_j-c7" class="st6" x1="286" y1="276" x2="290" y2="349"/>
	<line id="j-c7_x5F_o-c9" class="st6" x1="285" y1="267" x2="280" y2="156"/>
	<line id="v-d2_x5F_j-d4" class="st6" x1="367" y1="546" x2="362" y2="438"/>
	<line id="j-d4_x5F_v-d6" class="st6" x1="361" y1="432" x2="361" y2="355"/>
	<line id="v-d6_x5F_j-d7" class="st6" x1="362" y1="352" x2="356" y2="198"/>
	<line id="j-d7_x5F_o-d9" class="st6" x1="355" y1="198" x2="353" y2="155"/>
	<path id="j-c4_x5F_v-d2" class="st6" d="M282,420c0,0-29-11-28,34s12,197,12,197s2,42,54,35s54-46,54-46l-5-87"/>
	<line id="j-d4_x5F_j-e4" class="st6" x1="366" y1="436" x2="432" y2="435"/>
	<line id="j-e4_x5F_v-e6" class="st6" x1="432" y1="429" x2="439" y2="352"/>
	<line id="v-e6_x5F_j-e7" class="st6" x1="437" y1="350" x2="443" y2="282"/>
	<line id="j-e7_x5F_j-e8" class="st6" x1="443" y1="280" x2="451" y2="203"/>
	<line id="j-e8_x5F_j-d7" class="st6" x1="449" y1="198" x2="358" y2="197"/>
	<line id="j-e8_x5F_o-e9" class="st6" x1="450" y1="196" x2="452" y2="153"/>
	<path id="j-c3_x5F_j-i4" class="st6" d="M303,513l296-19c0,0,30,3,31-32s5-47,5-47"/>
	<line id="j-i4_x5F_j-f4" class="st6" x1="632" y1="408" x2="507" y2="413"/>
	<path id="j-i4_x5F_j-e7" class="st6" d="M637,400l2-90c0,0,5-29-53-30s-135,4-135,4"/>
	<line id="v-f2_x5F_j-f4" class="st6" x1="499" y1="534" x2="498" y2="421"/>
	<line id="j-f4_x5F_v-f6" class="st6" x1="497" y1="407" x2="503" y2="363"/>
	<path id="v-f6_x5F_o-g9" class="st6" d="M502,347l2-39c0,0-1-27,29-49s24-19,24-19s14-16,13-41s-3-40-3-40"/>
	<line id="j-e3_x5F_j-e4" class="st6" x1="432" y1="470" x2="432" y2="439"/>
	<path id="j-g1_x5F_j-c7" class="st6" d="M558,610l-2,37c0,0-0.5,32.5-29,36c-19.5,2.4-16.8,2.2-27.5,2.5c0,0-35.5,5.5-39.5-49.5
		s17-359,17-359s9-34-36-28c0,0-99,21-146,21"/>
	<path id="j-b7_x5F_j-e3" class="st6" d="M421,478c-91.5,11.4-204,27-204,27s-89,9-91-100s67-106,67-106"/>
	<path id="j-e3_x5F_v-f2" class="st6" d="M497,551l1,65c0,0,5,41,72,33s71-68,71-68l-2-80c0,0,2-40-65-38c-18.1,0.5-90.6,8.5-131,13
		"/>
</g>
<g id="Nodes">
	<g id="v-b2">
		<circle class="st7" cx="198" cy="556" r="17"/>
		<text transform="matrix(1 0 0 1 184.8081 558)" class="st8 st4 st9">v</text>
		<text transform="matrix(0.583 0 0 0.583 195.999 564.3271)" class="st8 st4 st9">B2</text>
	</g>
	<g id="v-b6">
		<circle class="st7" cx="202" cy="353" r="17"/>
		<text transform="matrix(1 0 0 1 188.8081 355)" class="st8 st4 st9">v</text>
		<text transform="matrix(0.583 0 0 0.583 199.999 361.3271)" class="st8 st4 st9">B6</text>
	</g>
	<g id="v-c6">
		<circle class="st7" cx="289" cy="353" r="17"/>
		<text transform="matrix(1 0 0 1 275.1875 355)" class="st8 st4 st9">v</text>
		<text transform="matrix(0.583 0 0 0.583 286.3784 361.3271)" class="st8 st4 st9">C6</text>
	</g>
	<g id="v-d6">
		<circle class="st7" cx="362" cy="353" r="17"/>
		<text transform="matrix(1 0 0 1 347.9106 355)" class="st8 st4 st9">v</text>
		<text transform="matrix(0.583 0 0 0.583 359.1016 361.3271)" class="st8 st4 st9">D6</text>
	</g>
	<g id="v-e6">
		<circle class="st7" cx="439" cy="354" r="17"/>
		<text transform="matrix(1 0 0 1 426.3511 356)" class="st8 st4 st9">v</text>
		<text transform="matrix(0.583 0 0 0.583 437.542 362.3271)" class="st8 st4 st9">E6</text>
	</g>
	<g id="v-f6">
		<circle class="st7" cx="502" cy="355" r="17"/>
		<text transform="matrix(1 0 0 1 489.6831 357)" class="st8 st4 st9">v</text>
		<text transform="matrix(0.583 0 0 0.583 500.874 363.3271)" class="st8 st4 st9">F6</text>
	</g>
	<g id="v-h6">
		<circle class="st7" cx="588" cy="355" r="17"/>
		<text transform="matrix(1 0 0 1 573.9663 357)" class="st8 st4 st9">v</text>
		<text transform="matrix(0.583 0 0 0.583 585.1572 363.3271)" class="st8 st4 st9">H6</text>
	</g>
	<g id="v-c2">
		<circle class="st7" cx="295" cy="552" r="17"/>
		<text transform="matrix(1 0 0 1 282.1875 554)" class="st8 st4 st9">v</text>
		<text transform="matrix(0.583 0 0 0.583 293.3784 560.3271)" class="st8 st4 st9">C2</text>
	</g>
	<g id="v-d2">
		<circle class="st7" cx="367" cy="547" r="17"/>
		<text transform="matrix(1 0 0 1 353.9106 549)" class="st8 st4 st9">v</text>
		<text transform="matrix(0.583 0 0 0.583 365.1016 555.3271)" class="st8 st4 st9">D2</text>
	</g>
	<g id="v-f2">
		<circle class="st7" cx="499" cy="540" r="17"/>
		<text transform="matrix(1 0 0 1 487.6831 542)" class="st8 st4 st9">v</text>
		<text transform="matrix(0.583 0 0 0.583 498.874 548.3271)" class="st8 st4 st9">F2</text>
	</g>
	<g id="v-h2">
		<circle class="st7" cx="588" cy="537" r="17"/>
		<text transform="matrix(1 0 0 1 574.9663 539)" class="st8 st4 st9">v</text>
		<text transform="matrix(0.583 0 0 0.583 586.1572 545.3271)" class="st8 st4 st9">H2</text>
	</g>
	<g id="j-c3">
		<circle class="st10" cx="295" cy="508" r="17"/>
		<text transform="matrix(1 0 0 1 287.7549 510)" class="st8 st4 st9">j</text>
		<text transform="matrix(0.583 0 0 0.583 293.3789 516.3271)" class="st8 st4 st9">C3</text>
	</g>
	<g id="j-c4">
		<circle class="st10" cx="291" cy="419" r="17"/>
		<text transform="matrix(1 0 0 1 283.7549 421)" class="st8 st4 st9">j</text>
		<text transform="matrix(0.583 0 0 0.583 289.3789 427.3271)" class="st8 st4 st9">C4</text>
	</g>
	<g id="j-b7">
		<circle class="st10" cx="204" cy="298" r="17"/>
		<text transform="matrix(1 0 0 1 197.375 300)" class="st8 st4 st9">j</text>
		<text transform="matrix(0.583 0 0 0.583 202.999 306.3271)" class="st8 st4 st9">B7</text>
	</g>
	<g id="j-b5">
		<circle class="st10" cx="203" cy="389" r="17"/>
		<text transform="matrix(1 0 0 1 196.375 391)" class="st8 st4 st9">j</text>
		<text transform="matrix(0.583 0 0 0.583 201.999 397.3271)" class="st8 st4 st9">B5</text>
	</g>
	<g id="j-c7">
		<circle class="st10" cx="285" cy="271" r="17"/>
		<text transform="matrix(1 0 0 1 277.7549 273)" class="st8 st4 st9">j</text>
		<text transform="matrix(0.583 0 0 0.583 283.3789 279.3271)" class="st8 st4 st9">C7</text>
	</g>
	<g id="j-e7">
		<circle class="st10" cx="443" cy="283" r="17"/>
		<text transform="matrix(1 0 0 1 436.918 285)" class="st8 st4 st9">j</text>
		<text transform="matrix(0.583 0 0 0.583 442.542 291.3271)" class="st8 st4 st9">E7</text>
	</g>
	<g id="j-e8">
		<circle class="st10" cx="448" cy="200" r="17"/>
		<text transform="matrix(1 0 0 1 441.918 202)" class="st8 st4 st9">j</text>
		<text transform="matrix(0.583 0 0 0.583 447.542 208.3271)" class="st8 st4 st9">E8</text>
	</g>
	<g id="j-d7">
		<circle class="st10" cx="356" cy="201" r="17"/>
		<text transform="matrix(1 0 0 1 348.478 203)" class="st8 st4 st9">j</text>
		<text transform="matrix(0.583 0 0 0.583 354.1021 209.3271)" class="st8 st4 st9">D7</text>
	</g>
	<g id="j-d4">
		<circle class="st10" cx="362" cy="437" r="17"/>
		<text transform="matrix(1 0 0 1 354.478 439)" class="st8 st4 st9">j</text>
		<text transform="matrix(0.583 0 0 0.583 360.1021 445.3271)" class="st8 st4 st9">D4</text>
	</g>
	<g id="j-e4">
		<circle class="st10" cx="433" cy="432" r="17"/>
		<text transform="matrix(1 0 0 1 426.918 434)" class="st8 st4 st9">j</text>
		<text transform="matrix(0.583 0 0 0.583 432.542 440.3271)" class="st8 st4 st9">E4</text>
	</g>
	<g id="j-e3">
		<circle class="st10" cx="431" cy="475" r="17"/>
		<text transform="matrix(1 0 0 1 424.918 477)" class="st8 st4 st9">j</text>
		<text transform="matrix(0.583 0 0 0.583 430.542 483.3271)" class="st8 st4 st9">E3</text>
	</g>
	<g id="j-f4">
		<circle class="st10" cx="500" cy="413" r="17"/>
		<text transform="matrix(1 0 0 1 494.25 415)" class="st8 st4 st9">j</text>
		<text transform="matrix(0.583 0 0 0.583 499.874 421.3271)" class="st8 st4 st9">F4</text>
	</g>
	<g id="j-i4">
		<circle class="st10" cx="637" cy="410" r="17"/>
		<text transform="matrix(1 0 0 1 634.23 412)" class="st8 st4 st9">j</text>
		<text transform="matrix(0.583 0 0 0.583 639.854 418.3271)" class="st8 st4 st9">I4</text>
	</g>
	<g id="j-h7">
		<circle class="st10" cx="608" cy="273" r="17"/>
		<text transform="matrix(1 0 0 1 600.5332 275)" class="st8 st4 st9">j</text>
		<text transform="matrix(0.583 0 0 0.583 606.1572 281.3271)" class="st8 st4 st9">H7</text>
	</g>
	<g id="j-b1">
		<circle class="st10" cx="208" cy="615" r="17"/>
		<text transform="matrix(1 0 0 1 201.375 617)" class="st8 st4 st9">j</text>
		<text transform="matrix(0.583 0 0 0.583 206.999 623.3271)" class="st8 st4 st9">B1</text>
	</g>
	<g id="i-a1">
		<circle class="st11" cx="158" cy="624" r="17"/>
		<text transform="matrix(1 0 0 1 150.6729 626)" class="st8 st4 st9">i</text>
		<text transform="matrix(0.583 0 0 0.583 156.2017 632.3271)" class="st8 st4 st9">A1</text>
	</g>
	<g id="o-b9">
		<circle class="st12" cx="211" cy="149" r="17"/>
		<text transform="matrix(1 0 0 1 198.1431 151)" class="st8 st4 st9">o</text>
		<text transform="matrix(0.583 0 0 0.583 209.999 157.3271)" class="st8 st4 st9">B9</text>
	</g>
	<g id="o-c9">
		<circle class="st12" cx="279" cy="149" r="17"/>
		<text transform="matrix(1 0 0 1 265.5225 151)" class="st8 st4 st9">o</text>
		<text transform="matrix(0.583 0 0 0.583 277.3784 157.3271)" class="st8 st4 st9">C9</text>
	</g>
	<g id="o-d9">
		<circle class="st13" cx="353" cy="149" r="17"/>
		<text transform="matrix(1 0 0 1 339.2456 151)" class="st8 st4 st9">o</text>
		<text transform="matrix(0.583 0 0 0.583 351.1016 157.3271)" class="st8 st4 st9">D9</text>
	</g>
	<g id="o-e9">
		<circle class="st12" cx="452" cy="150" r="17"/>
		<text transform="matrix(1 0 0 1 439.686 152)" class="st8 st4 st9">o</text>
		<text transform="matrix(0.583 0 0 0.583 451.542 158.3271)" class="st8 st4 st9">E9</text>
	</g>
	<g id="o-g9">
		<circle class="st12" cx="565" cy="153" r="17"/>
		<text transform="matrix(1 0 0 1 551.2681 155)" class="st8 st4 st9">o</text>
		<text transform="matrix(0.583 0 0 0.583 563.124 161.3271)" class="st8 st4 st9">G9</text>
	</g>
	<g id="o-i9">
		<circle class="st12" cx="638" cy="153" r="17"/>
		<text transform="matrix(1 0 0 1 626.9976 155)" class="st8 st4 st9">o</text>
		<text transform="matrix(0.583 0 0 0.583 638.8535 161.3271)" class="st8 st4 st9">I9</text>
	</g>
	<g id="j-c1">
		<circle class="st10" cx="301" cy="616" r="17"/>
		<text transform="matrix(1 0 0 1 293.7549 618)" class="st8 st4 st9">j</text>
		<text transform="matrix(0.583 0 0 0.583 299.3789 624.3271)" class="st8 st4 st9">C1</text>
	</g>
	<g id="j-g1">
		<circle class="st10" cx="558" cy="600" r="17"/>
		<text transform="matrix(1 0 0 1 550.5 602)" class="st8 st4 st9">j</text>
		<text transform="matrix(0.583 0 0 0.583 556.124 608.3271)" class="st8 st4 st9">G1</text>
	</g>
</g>
</g>
</svg>
